<svg width="48" height="48" viewBox="0 0 48 48" fill="none" xmlns="http://www.w3.org/2000/svg">
<path fill-rule="evenodd" clip-rule="evenodd" d="M15.5 9C11.9096 9 9 11.9108 9 15.5C9 19.0903 11.9097 22 15.5 22C19.0892 22 22 19.0904 22 15.5C22 11.9107 19.0893 9 15.5 9ZM11 15.5C11 13.0152 13.0144 11 15.5 11C17.9847 11 20 13.0153 20 15.5C20 17.9856 17.9848 20 15.5 20C13.0143 20 11 17.9857 11 15.5ZM32.9199 9C29.3295 9 26.4199 11.9108 26.4199 15.5C26.4199 19.0903 29.3296 22 32.9199 22C36.5091 22 39.4199 19.0904 39.4199 15.5C39.4199 11.9107 36.5092 9 32.9199 9ZM28.4199 15.5C28.4199 13.0152 30.4343 11 32.9199 11C35.4046 11 37.4199 13.0153 37.4199 15.5C37.4199 17.9856 35.4048 20 32.9199 20C30.4342 20 28.4199 17.9857 28.4199 15.5ZM9 32.5C9 28.9108 11.9096 26 15.5 26C19.0893 26 22 28.9107 22 32.5C22 36.0904 19.0892 39 15.5 39C11.9097 39 9 36.0903 9 32.5ZM15.5 28C13.0144 28 11 30.0152 11 32.5C11 34.9857 13.0143 37 15.5 37C17.9848 37 20 34.9856 20 32.5C20 30.0153 17.9847 28 15.5 28ZM32.9199 26C29.3295 26 26.4199 28.9108 26.4199 32.5C26.4199 36.0903 29.3296 39 32.9199 39C36.5091 39 39.4199 36.0904 39.4199 32.5C39.4199 28.9107 36.5092 26 32.9199 26ZM28.4199 32.5C28.4199 30.0152 30.4343 28 32.9199 28C35.4046 28 37.4199 30.0153 37.4199 32.5C37.4199 34.9856 35.4048 37 32.9199 37C30.4342 37 28.4199 34.9857 28.4199 32.5Z" fill="#333333"/>
</svg>
