<svg width="48" height="48" viewBox="0 0 48 48" fill="none" xmlns="http://www.w3.org/2000/svg">
<path fill-rule="evenodd" clip-rule="evenodd" d="M8.4001 28.8C11.0509 28.8 13.2001 26.652 13.2001 24C13.2001 21.3492 11.0509 19.2 8.4001 19.2C5.7481 19.2 3.6001 21.3492 3.6001 24C3.6001 26.652 5.7481 28.8 8.4001 28.8Z" stroke="#333333" stroke-width="2"/>
<path fill-rule="evenodd" clip-rule="evenodd" d="M39.6 28.8C42.2508 28.8 44.4 26.652 44.4 24C44.4 21.3492 42.2508 19.2 39.6 19.2C36.9492 19.2 34.8 21.3492 34.8 24C34.8 26.652 36.9492 28.8 39.6 28.8Z" stroke="#333333" stroke-width="2"/>
<path fill-rule="evenodd" clip-rule="evenodd" d="M24 13.2C26.6508 13.2 28.8 11.052 28.8 8.39998C28.8 5.74918 26.6508 3.59998 24 3.59998C21.3492 3.59998 19.2 5.74918 19.2 8.39998C19.2 11.052 21.3492 13.2 24 13.2Z" stroke="#333333" stroke-width="2"/>
<path fill-rule="evenodd" clip-rule="evenodd" d="M24 44.4C26.6508 44.4 28.8 42.252 28.8 39.6C28.8 36.9492 26.6508 34.8 24 34.8C21.3492 34.8 19.2 36.9492 19.2 39.6C19.2 42.252 21.3492 44.4 24 44.4Z" stroke="#333333" stroke-width="2"/>
</svg>
