<svg width="48" height="48" viewBox="0 0 48 48" fill="none" xmlns="http://www.w3.org/2000/svg">
<path fill-rule="evenodd" clip-rule="evenodd" d="M32.5 9C28.9096 9 26 11.9108 26 15.5C26 19.0903 28.9097 22 32.5 22C36.0892 22 39 19.0904 39 15.5C39 11.9107 36.0893 9 32.5 9ZM28 15.5C28 13.0152 30.0144 11 32.5 11C34.9847 11 37 13.0153 37 15.5C37 17.9856 34.9848 20 32.5 20C30.0143 20 28 17.9857 28 15.5ZM12 15C12 12.2387 14.2387 10 17 10C19.7613 10 22 12.2387 22 15C22 17.7624 19.7611 20 17 20C14.2389 20 12 17.7624 12 15ZM17 12C15.3433 12 14 13.3433 14 15C14 16.6576 15.3431 18 17 18C18.6569 18 20 16.6576 20 15C20 13.3433 18.6567 12 17 12ZM17 28.5C17 24.9108 19.9096 22 23.5 22C27.0893 22 30 24.9107 30 28.5C30 32.0904 27.0892 35 23.5 35C19.9097 35 17 32.0903 17 28.5ZM23.5 24C21.0144 24 19 26.0152 19 28.5C19 30.9857 21.0143 33 23.5 33C25.9848 33 28 30.9856 28 28.5C28 26.0153 25.9847 24 23.5 24ZM11 30C8.23755 30 6 32.2389 6 35C6 37.7623 8.23772 40 11 40C13.7611 40 16 37.7624 16 35C16 32.2387 13.7613 30 11 30ZM8 35C8 33.3431 9.34245 32 11 32C12.6567 32 14 33.3433 14 35C14 36.6576 12.6569 38 11 38C9.34228 38 8 36.6577 8 35ZM31 33C31 30.2387 33.2387 28 36 28C38.7613 28 41 30.2387 41 33C41 35.7624 38.7611 38 36 38C33.2389 38 31 35.7624 31 33ZM36 30C34.3433 30 33 31.3433 33 33C33 34.6576 34.3431 36 36 36C37.6569 36 39 34.6576 39 33C39 31.3433 37.6567 30 36 30Z" fill="#333333"/>
</svg>
