<?xml version="1.0" encoding="iso-8859-1"?>
<!-- Generator: Adobe Illustrator 19.0.0, SVG Export Plug-In . SVG Version: 6.00 Build 0)  -->
<svg version="1.1" id="Layer_1" xmlns="http://www.w3.org/2000/svg" xmlns:xlink="http://www.w3.org/1999/xlink" x="0px" y="0px"
	 viewBox="0 0 511.999 511.999" style="enable-background:new 0 0 511.999 511.999;" xml:space="preserve">
<g>
	<g>
		<g>
			<path d="M491.053,0.879h-34.149c-4.45,0-8.056,3.606-8.056,8.056s3.606,8.056,8.056,8.056h34.149
				c2.665,0,4.834,2.169,4.834,4.834v369.791c0,2.665-2.169,4.834-4.834,4.834H327.97H184.029H20.947
				c-2.665,0-4.834-2.169-4.834-4.834V21.825c0-2.665,2.169-4.834,4.834-4.834h408.567c4.45,0,8.056-3.606,8.056-8.056
				s-3.606-8.056-8.056-8.056H20.947C9.397,0.879,0,10.276,0,21.825v369.791c0,11.55,9.397,20.947,20.947,20.947h155.025v33.672
				h-50.708c-11.55,0-20.947,9.397-20.947,20.947v22.992c0,11.55,9.397,20.947,20.947,20.947h261.471
				c11.55,0,20.947-9.397,20.947-20.947v-22.992c0-11.55-9.397-20.947-20.947-20.947h-50.708v-33.672h155.025
				c11.55,0,20.947-9.397,20.947-20.947V21.825C512,10.276,502.603,0.879,491.053,0.879z M192.085,412.563h127.829v33.672H192.085
				V412.563z M386.735,462.348c2.666,0,4.834,2.169,4.834,4.834v22.992c0,2.665-2.169,4.834-4.834,4.834H125.264
				c-2.665,0-4.834-2.169-4.834-4.834v-22.992c0-2.665,2.169-4.834,4.834-4.834h58.765H327.97H386.735z"/>
			<path d="M94.871,361.539H69.906c-4.45,0-8.056,3.606-8.056,8.056s3.606,8.056,8.056,8.056h24.964c4.45,0,8.056-3.606,8.056-8.056
				C102.927,365.146,99.321,361.539,94.871,361.539z"/>
			<path d="M451.761,351.871h-27.113c-9.773,0-17.724,7.951-17.724,17.724s7.951,17.724,17.724,17.724h27.113
				c9.773,0,17.724-7.951,17.724-17.724C469.486,359.823,461.533,351.871,451.761,351.871z M451.761,371.207h-27.113
				c-0.888,0-1.611-0.723-1.611-1.611s0.723-1.611,1.611-1.611h27.113c0.888,0,1.611,0.723,1.611,1.611
				S452.65,371.207,451.761,371.207z"/>
			<path d="M351.245,351.871c-9.773,0-17.724,7.951-17.724,17.724s7.951,17.724,17.724,17.724h27.113
				c9.773,0,17.724-7.951,17.724-17.724s-7.951-17.724-17.724-17.724H351.245z M379.97,369.595c0,0.888-0.723,1.611-1.611,1.611
				h-27.113c-0.888,0-1.611-0.723-1.611-1.611s0.723-1.611,1.611-1.611h27.113C379.247,367.984,379.97,368.707,379.97,369.595z"/>
			<path d="M448.039,42.017H100.006H63.961c-11.233,0-20.372,9.139-20.372,20.372v26.778v232.166
				c0,11.233,9.139,20.372,20.372,20.372h36.866c4.45,0,8.056-3.606,8.056-8.056s-3.606-8.056-8.056-8.056H63.961
				c-2.349,0-4.259-1.91-4.259-4.259V97.223h40.305h352.292v224.11c0,2.348-1.91,4.259-4.259,4.259H127.68
				c-4.45,0-8.056,3.606-8.056,8.056s3.606,8.056,8.056,8.056h320.359c11.233,0,20.372-9.139,20.372-20.372V89.167V62.389
				C468.411,51.156,459.272,42.017,448.039,42.017z M91.95,81.11H59.701V62.389c0-2.348,1.91-4.259,4.259-4.259H91.95V81.11z
				 M452.299,81.11H108.063V58.13h339.977c2.349,0,4.259,1.91,4.259,4.259V81.11z"/>
		</g>
	</g>
</g>
<g>
</g>
<g>
</g>
<g>
</g>
<g>
</g>
<g>
</g>
<g>
</g>
<g>
</g>
<g>
</g>
<g>
</g>
<g>
</g>
<g>
</g>
<g>
</g>
<g>
</g>
<g>
</g>
<g>
</g>
</svg>
