<svg width="48" height="48" viewBox="0 0 48 48" fill="none" xmlns="http://www.w3.org/2000/svg">
<path fill-rule="evenodd" clip-rule="evenodd" d="M17 17.5C17 13.9108 19.9096 11 23.5 11C27.0893 11 30 13.9107 30 17.5C30 21.0904 27.0892 24 23.5 24C19.9097 24 17 21.0903 17 17.5ZM23.5 13C21.0144 13 19 15.0152 19 17.5C19 19.9857 21.0143 22 23.5 22C25.9848 22 28 19.9856 28 17.5C28 15.0153 25.9847 13 23.5 13ZM9 31.5C9 27.9108 11.9096 25 15.5 25C19.0893 25 22 27.9107 22 31.5C22 35.0904 19.0892 38 15.5 38C11.9097 38 9 35.0903 9 31.5ZM15.5 27C13.0144 27 11 29.0152 11 31.5C11 33.9857 13.0143 36 15.5 36C17.9848 36 20 33.9856 20 31.5C20 29.0153 17.9847 27 15.5 27ZM31.5 25C27.9096 25 25 27.9108 25 31.5C25 35.0903 27.9097 38 31.5 38C35.0892 38 38 35.0904 38 31.5C38 27.9107 35.0893 25 31.5 25ZM27 31.5C27 29.0152 29.0144 27 31.5 27C33.9847 27 36 29.0153 36 31.5C36 33.9856 33.9848 36 31.5 36C29.0143 36 27 33.9857 27 31.5Z" fill="#333333"/>
</svg>
